<svg id="chart" width="1000" height="300" fill="#FEFEFE"><g class="ring_group" opacity="1" transform="translate(73.8888888888889,55.55555555555556)"><text fill="#fff" font-size="12">Phonology</text><path d="M3.2316001003646067e-15,-52.77777777777778A52.77777777777778,52.77777777777778 0 1,1 -50.85402738295898,14.119551200153344L-32.11833308397409,8.917611284307375A33.333333333333336,33.333333333333336 0 1,0 2.041010589703962e-15,-33.333333333333336Z" fill="rgb(117,107,177)" fill-opacity="1" stroke="#FEFEFE" stroke-width="2"></path><path d="M-50.85402738295898,14.119551200153344A52.77777777777778,52.77777777777778 0 0,1 -9.69480030109382e-15,-52.77777777777778L-6.123031769111887e-15,-33.333333333333336A33.333333333333336,33.333333333333336 0 0,0 -32.11833308397409,8.917611284307375Z" fill="rgb(222,235,247)" fill-opacity="1" stroke="#FEFEFE" stroke-width="2"></path></g><g class="ring_group" opacity="1" transform="translate(147.7777777777778,161.11111111111111)"><text fill="#fff" font-size="12">Morphology</text><path d="M3.2316001003646067e-15,-52.77777777777778A52.77777777777778,52.77777777777778 0 1,1 -28.533820921267683,-44.399492010534544L-18.021360581853276,-28.041784427706027A33.333333333333336,33.333333333333336 0 1,0 2.041010589703962e-15,-33.333333333333336Z" fill="rgb(117,107,177)" fill-opacity="1" stroke="#FEFEFE" stroke-width="2"></path><path d="M-28.533820921267683,-44.399492010534544A52.77777777777778,52.77777777777778 0 0,1 -9.69480030109382e-15,-52.77777777777778L-6.123031769111887e-15,-33.333333333333336A33.333333333333336,33.333333333333336 0 0,0 -18.021360581853276,-28.041784427706027Z" fill="rgb(222,235,247)" fill-opacity="1" stroke="#FEFEFE" stroke-width="2"></path></g><g class="ring_group" opacity="1" transform="translate(221.6666666666667,55.55555555555556)"><text fill="#fff" font-size="12">Lexicon</text><path d="M3.2316001003646067e-15,-52.77777777777778A52.77777777777778,52.77777777777778 0 1,1 -48.4370496888768,-20.96058311683561L-30.591820856132713,-13.238263021159334A33.333333333333336,33.333333333333336 0 1,0 2.041010589703962e-15,-33.333333333333336Z" fill="rgb(117,107,177)" fill-opacity="1" stroke="#FEFEFE" stroke-width="2"></path><path d="M-48.4370496888768,-20.96058311683561A52.77777777777778,52.77777777777778 0 0,1 -9.69480030109382e-15,-52.77777777777778L-6.123031769111887e-15,-33.333333333333336A33.333333333333336,33.333333333333336 0 0,0 -30.591820856132713,-13.238263021159334Z" fill="rgb(222,235,247)" fill-opacity="1" stroke="#FEFEFE" stroke-width="2"></path></g><g class="ring_group" opacity="1" transform="translate(295.5555555555556,161.11111111111111)"><text fill="#fff" font-size="12">Syntax</text><path d="M3.2316001003646067e-15,-52.77777777777778A52.77777777777778,52.77777777777778 0 1,1 -52.69273635486132,-2.994889413245579L-33.27962296096504,-1.891509103102471A33.333333333333336,33.333333333333336 0 1,0 2.041010589703962e-15,-33.333333333333336Z" fill="rgb(117,107,177)" fill-opacity="1" stroke="#FEFEFE" stroke-width="2"></path><path d="M-52.69273635486132,-2.994889413245579A52.77777777777778,52.77777777777778 0 0,1 -9.69480030109382e-15,-52.77777777777778L-6.123031769111887e-15,-33.333333333333336A33.333333333333336,33.333333333333336 0 0,0 -33.27962296096504,-1.891509103102471Z" fill="rgb(222,235,247)" fill-opacity="1" stroke="#FEFEFE" stroke-width="2"></path></g><g class="ring_group" opacity="1" transform="translate(369.44444444444446,55.55555555555556)"><text fill="#fff" font-size="12">Semantics</text><path d="M3.2316001003646067e-15,-52.77777777777778A52.77777777777778,52.77777777777778 0 1,1 -52.014048426686344,8.9460937524051L-32.85097795369664,5.650164475203221A33.333333333333336,33.333333333333336 0 1,0 2.041010589703962e-15,-33.333333333333336Z" fill="rgb(117,107,177)" fill-opacity="1" stroke="#FEFEFE" stroke-width="2"></path><path d="M-52.014048426686344,8.9460937524051A52.77777777777778,52.77777777777778 0 0,1 -9.69480030109382e-15,-52.77777777777778L-6.123031769111887e-15,-33.333333333333336A33.333333333333336,33.333333333333336 0 0,0 -32.85097795369664,5.650164475203221Z" fill="rgb(222,235,247)" fill-opacity="1" stroke="#FEFEFE" stroke-width="2"></path></g><g class="ring_group" opacity="1" transform="translate(443.3333333333334,161.11111111111111)"><text fill="#fff" font-size="12">Comprehension</text><path d="M3.2316001003646067e-15,-52.77777777777778A52.77777777777778,52.77777777777778 0 1,1 -52.52649959770639,5.143993309933823L-33.1746313248672,3.248837879958204A33.333333333333336,33.333333333333336 0 1,0 2.041010589703962e-15,-33.333333333333336Z" fill="rgb(117,107,177)" fill-opacity="1" stroke="#FEFEFE" stroke-width="2"></path><path d="M-52.52649959770639,5.143993309933823A52.77777777777778,52.77777777777778 0 0,1 -9.69480030109382e-15,-52.77777777777778L-6.123031769111887e-15,-33.333333333333336A33.333333333333336,33.333333333333336 0 0,0 -33.1746313248672,3.248837879958204Z" fill="rgb(222,235,247)" fill-opacity="1" stroke="#FEFEFE" stroke-width="2"></path></g><g class="ring_group" opacity="1" transform="translate(517.2222222222223,55.55555555555556)"><text fill="#fff" font-size="12">Repetition</text><path d="M0,52.77777777777778A52.77777777777778,52.77777777777778 0 1,1 0,-52.77777777777778A52.77777777777778,52.77777777777778 0 1,1 0,52.77777777777778M0,33.333333333333336A33.333333333333336,33.333333333333336 0 1,0 0,-33.333333333333336A33.333333333333336,33.333333333333336 0 1,0 0,33.333333333333336Z" fill="rgb(117,107,177)" fill-opacity="1" stroke="#FEFEFE" stroke-width="2"></path><path d="M-9.69480030109382e-15,-52.77777777777778A52.77777777777778,52.77777777777778 0 0,1 -9.69480030109382e-15,-52.77777777777778L-6.123031769111887e-15,-33.333333333333336A33.333333333333336,33.333333333333336 0 0,0 -6.123031769111887e-15,-33.333333333333336Z" fill="rgb(222,235,247)" fill-opacity="1" stroke="#FEFEFE" stroke-width="2"></path></g><g class="ring_group" opacity="1" transform="translate(591.1111111111112,161.11111111111111)"><text fill="#fff" font-size="12">Judgment</text><path d="M3.2316001003646067e-15,-52.77777777777778A52.77777777777778,52.77777777777778 0 1,1 -52.752746318205425,1.6252947571312149L-33.31752399044553,1.0265019518723464A33.333333333333336,33.333333333333336 0 1,0 2.041010589703962e-15,-33.333333333333336Z" fill="rgb(117,107,177)" fill-opacity="1" stroke="#FEFEFE" stroke-width="2"></path><path d="M-52.752746318205425,1.6252947571312149A52.77777777777778,52.77777777777778 0 0,1 -9.69480030109382e-15,-52.77777777777778L-6.123031769111887e-15,-33.333333333333336A33.333333333333336,33.333333333333336 0 0,0 -33.31752399044553,1.0265019518723464Z" fill="rgb(222,235,247)" fill-opacity="1" stroke="#FEFEFE" stroke-width="2"></path></g><g class="ring_group" opacity="1" transform="translate(665,55.55555555555556)"><text fill="#fff" font-size="12">LexicalAccess</text><path d="M3.2316001003646067e-15,-52.77777777777778A52.77777777777778,52.77777777777778 0 1,1 -50.88149052640796,-14.02026208640734L-32.13567822720503,-8.854902370362531A33.333333333333336,33.333333333333336 0 1,0 2.041010589703962e-15,-33.333333333333336Z" fill="rgb(117,107,177)" fill-opacity="1" stroke="#FEFEFE" stroke-width="2"></path><path d="M-50.88149052640796,-14.02026208640734A52.77777777777778,52.77777777777778 0 0,1 -9.69480030109382e-15,-52.77777777777778L-6.123031769111887e-15,-33.333333333333336A33.333333333333336,33.333333333333336 0 0,0 -32.13567822720503,-8.854902370362531Z" fill="rgb(222,235,247)" fill-opacity="1" stroke="#FEFEFE" stroke-width="2"></path></g><g class="ring_group" opacity="1" transform="translate(738.8888888888889,161.11111111111111)"><text fill="#fff" font-size="12">Propositionalizing</text><path d="M3.2316001003646067e-15,-52.77777777777778A52.77777777777778,52.77777777777778 0 1,1 -12.630548948509992,-51.244151475263855L-7.977188809585258,-32.36472724753507A33.333333333333336,33.333333333333336 0 1,0 2.041010589703962e-15,-33.333333333333336Z" fill="rgb(117,107,177)" fill-opacity="1" stroke="#FEFEFE" stroke-width="2"></path><path d="M-12.630548948509992,-51.244151475263855A52.77777777777778,52.77777777777778 0 0,1 -9.69480030109382e-15,-52.77777777777778L-6.123031769111887e-15,-33.333333333333336A33.333333333333336,33.333333333333336 0 0,0 -7.977188809585258,-32.36472724753507Z" fill="rgb(222,235,247)" fill-opacity="1" stroke="#FEFEFE" stroke-width="2"></path></g><g class="ring_group" opacity="1" transform="translate(812.7777777777778,55.55555555555556)"><text fill="#fff" font-size="12">Reading</text><path d="M3.2316001003646067e-15,-52.77777777777778A52.77777777777778,52.77777777777778 0 1,1 -38.571898114678795,-36.023638114317826L-24.36119880927082,-22.751771440621788A33.333333333333336,33.333333333333336 0 1,0 2.041010589703962e-15,-33.333333333333336Z" fill="rgb(117,107,177)" fill-opacity="1" stroke="#FEFEFE" stroke-width="2"></path><path d="M-38.571898114678795,-36.023638114317826A52.77777777777778,52.77777777777778 0 0,1 -9.69480030109382e-15,-52.77777777777778L-6.123031769111887e-15,-33.333333333333336A33.333333333333336,33.333333333333336 0 0,0 -24.36119880927082,-22.751771440621788Z" fill="rgb(222,235,247)" fill-opacity="1" stroke="#FEFEFE" stroke-width="2"></path></g><g class="ring_group" opacity="1" transform="translate(886.6666666666669,161.11111111111111)"><text fill="#fff" font-size="12">Writing</text><path d="M0,52.77777777777778A52.77777777777778,52.77777777777778 0 1,1 0,-52.77777777777778A52.77777777777778,52.77777777777778 0 1,1 0,52.77777777777778M0,33.333333333333336A33.333333333333336,33.333333333333336 0 1,0 0,-33.333333333333336A33.333333333333336,33.333333333333336 0 1,0 0,33.333333333333336Z" fill="rgb(117,107,177)" fill-opacity="1" stroke="#FEFEFE" stroke-width="2"></path><path d="M-9.69480030109382e-15,-52.77777777777778A52.77777777777778,52.77777777777778 0 0,1 -9.69480030109382e-15,-52.77777777777778L-6.123031769111887e-15,-33.333333333333336A33.333333333333336,33.333333333333336 0 0,0 -6.123031769111887e-15,-33.333333333333336Z" fill="rgb(222,235,247)" fill-opacity="1" stroke="#FEFEFE" stroke-width="2"></path></g></svg>
